<!-- Generated by IcoMoon.io -->
<svg version="1.1" xmlns="http://www.w3.org/2000/svg" width="4480" height="1024" viewBox="0 0 4480 1024">
<title></title>
<g id="icomoon-ignore">
</g>
<path d="M2873.6 70.4l-179.2 76.8v153.6h-121.6v166.4h121.6v326.4c0 134.4 83.2 224 211.2 224 51.2 0 83.2-12.8 102.4-19.2v-166.4c-6.4 0-32 6.4-57.6 6.4-51.2 0-76.8-19.2-76.8-83.2v-281.6h134.4v-166.4h-134.4v-236.8zM915.2 307.2l-128 448-147.2-448h-179.2l-147.2 448-121.6-448h-192l217.6 697.6h192l140.8-467.2 147.2 467.2h192l217.6-697.6zM4300.8 70.4v275.2c-44.8-32-96-51.2-153.6-57.6-6.4 0-6.4 0-12.8 0 0 0 0 0-6.4 0s-12.8 0-12.8 0c-12.8 0-19.2 0-32 0-160 12.8-262.4 134.4-294.4 288-6.4 25.6-6.4 44.8-6.4 70.4 0 0 0 6.4 0 6.4s0 0 0 0 0 0 0 0v0c0 6.4 0 12.8 0 19.2 0 0 0 0 0 0s0 0 0 0c0 12.8 0 19.2 0 32 19.2 179.2 140.8 320 326.4 320 76.8 0 140.8-19.2 192-57.6v44.8h172.8v-1011.2l-172.8 70.4zM4134.4 851.2c-96 0-179.2-76.8-179.2-198.4 0-128 83.2-198.4 179.2-198.4s166.4 70.4 166.4 192c0 134.4-70.4 204.8-166.4 204.8zM3718.4 576c-25.6-166.4-147.2-288-320-288s-294.4 121.6-320 288c0 0 0 0 0 0-6.4 25.6-6.4 51.2-6.4 83.2v0c0 19.2 0 32 0 51.2 0 0 0 0 0 0 19.2 179.2 140.8 320 326.4 320 147.2 0 256-89.6 300.8-217.6l-160-38.4c-25.6 57.6-76.8 102.4-140.8 102.4-89.6 0-147.2-70.4-160-166.4h486.4c0-12.8 0-32 0-51.2v0c0-32 0-57.6-6.4-83.2 0 0 0 0 0 0zM3244.8 576c25.6-70.4 76.8-115.2 153.6-115.2s128 51.2 153.6 115.2h-307.2zM1619.2 352c-44.8-32-102.4-57.6-166.4-57.6 0 0 0 0 0 0s0 0-6.4 0-12.8 0-12.8 0-12.8 0-19.2 0c-166.4 12.8-275.2 128-300.8 288-6.4 25.6-6.4 44.8-6.4 70.4 0 0 0 6.4 0 6.4s0 0 0 0 0 0 0 0v0c0 6.4 0 12.8 0 19.2 0 0 0 0 0 0s0 0 0 0c0 12.8 0 19.2 0 32 19.2 179.2 140.8 320 326.4 320 76.8 0 140.8-19.2 192-57.6v44.8h179.2v-710.4h-179.2v44.8zM1452.8 851.2c-96 0-179.2-76.8-179.2-198.4 0-128 83.2-198.4 179.2-198.4s166.4 70.4 166.4 192c0 134.4-70.4 204.8-166.4 204.8zM2278.4 288c-70.4 0-147.2 32-192 102.4v-83.2h-179.2v697.6h179.2v-403.2c0-83.2 44.8-147.2 128-147.2 89.6 0 121.6 64 121.6 140.8v409.6h179.2v-441.6c6.4-153.6-70.4-275.2-236.8-275.2z"></path>
</svg>
